<?xml version="1.0" encoding="UTF-8" standalone="no"?>
<!DOCTYPE svg PUBLIC "-//W3C//DTD SVG 1.1//EN"
 "http://www.w3.org/Graphics/SVG/1.1/DTD/svg11.dtd">
<!-- Generated by graphviz version 13.1.2 (20250808.2320)
 -->
<!-- Title: G Pages: 1 -->
<svg width="904pt" height="955pt"
 viewBox="0.00 0.00 904.00 955.00" xmlns="http://www.w3.org/2000/svg" xmlns:xlink="http://www.w3.org/1999/xlink">
<g id="graph0" class="graph" transform="scale(1 1) rotate(0) translate(4 951)">
<title>G</title>
<polygon fill="white" stroke="none" points="-4,4 -4,-951 900,-951 900,4 -4,4"/>
<g id="clust1" class="cluster">
<title>cluster_schema</title>
<polygon fill="none" stroke="white" points="8,-8 8,-939 600,-939 600,-8 8,-8"/>
<text xml:space="preserve" text-anchor="middle" x="304" y="-921.7" font-family="Times,serif" font-size="14.00">Database Schema</text>
</g>
<!-- patient -->
<g id="node1" class="node">
<title>patient</title>
<polygon fill="none" stroke="black" points="169.88,-231 169.88,-252 370.12,-252 370.12,-231 169.88,-231"/>
<text xml:space="preserve" text-anchor="start" x="212.25" y="-236.7" font-family="Helvetica,sans-Serif" font-weight="bold" font-size="14.00">healthcare.patient</text>
<polygon fill="none" stroke="black" points="169.88,-210 169.88,-231 267.38,-231 267.38,-210 169.88,-210"/>
<text xml:space="preserve" text-anchor="start" x="189.38" y="-214.7" font-family="Helvetica,sans-Serif" font-size="14.00">patient_id</text>
<polygon fill="none" stroke="black" points="267.38,-210 267.38,-231 370.12,-231 370.12,-210 267.38,-210"/>
<text xml:space="preserve" text-anchor="start" x="286.88" y="-214.7" font-family="Helvetica,sans-Serif" font-size="14.00">UUID (PK)</text>
<polygon fill="lightblue" stroke="none" points="169.88,-189 169.88,-210 267.38,-210 267.38,-189 169.88,-189"/>
<polygon fill="none" stroke="black" points="169.88,-189 169.88,-210 267.38,-210 267.38,-189 169.88,-189"/>
<text xml:space="preserve" text-anchor="start" x="208.12" y="-193.7" font-family="Helvetica,sans-Serif" font-size="14.00">ssn</text>
<polygon fill="lightblue" stroke="none" points="267.38,-189 267.38,-210 370.12,-210 370.12,-189 267.38,-189"/>
<polygon fill="none" stroke="black" points="267.38,-189 267.38,-210 370.12,-210 370.12,-189 267.38,-189"/>
<text xml:space="preserve" text-anchor="start" x="273.75" y="-193.7" font-family="Helvetica,sans-Serif" font-size="14.00">VARCHAR(11)</text>
<polygon fill="lightblue" stroke="none" points="169.88,-168 169.88,-189 267.38,-189 267.38,-168 169.88,-168"/>
<polygon fill="none" stroke="black" points="169.88,-168 169.88,-189 267.38,-189 267.38,-168 169.88,-168"/>
<text xml:space="preserve" text-anchor="start" x="186.75" y="-172.7" font-family="Helvetica,sans-Serif" font-size="14.00">first_name</text>
<polygon fill="lightblue" stroke="none" points="267.38,-168 267.38,-189 370.12,-189 370.12,-168 267.38,-168"/>
<polygon fill="none" stroke="black" points="267.38,-168 267.38,-189 370.12,-189 370.12,-168 267.38,-168"/>
<text xml:space="preserve" text-anchor="start" x="301.5" y="-172.7" font-family="Helvetica,sans-Serif" font-size="14.00">TEXT</text>
<polygon fill="lightblue" stroke="none" points="169.88,-147 169.88,-168 267.38,-168 267.38,-147 169.88,-147"/>
<polygon fill="none" stroke="black" points="169.88,-147 169.88,-168 267.38,-168 267.38,-147 169.88,-147"/>
<text xml:space="preserve" text-anchor="start" x="187.12" y="-151.7" font-family="Helvetica,sans-Serif" font-size="14.00">last_name</text>
<polygon fill="lightblue" stroke="none" points="267.38,-147 267.38,-168 370.12,-168 370.12,-147 267.38,-147"/>
<polygon fill="none" stroke="black" points="267.38,-147 267.38,-168 370.12,-168 370.12,-147 267.38,-147"/>
<text xml:space="preserve" text-anchor="start" x="301.5" y="-151.7" font-family="Helvetica,sans-Serif" font-size="14.00">TEXT</text>
<polygon fill="lightblue" stroke="none" points="169.88,-126 169.88,-147 267.38,-147 267.38,-126 169.88,-126"/>
<polygon fill="none" stroke="black" points="169.88,-126 169.88,-147 267.38,-147 267.38,-126 169.88,-126"/>
<text xml:space="preserve" text-anchor="start" x="207.38" y="-130.7" font-family="Helvetica,sans-Serif" font-size="14.00">dob</text>
<polygon fill="lightblue" stroke="none" points="267.38,-126 267.38,-147 370.12,-147 370.12,-126 267.38,-126"/>
<polygon fill="none" stroke="black" points="267.38,-126 267.38,-147 370.12,-147 370.12,-126 267.38,-126"/>
<text xml:space="preserve" text-anchor="start" x="300.75" y="-130.7" font-family="Helvetica,sans-Serif" font-size="14.00">DATE</text>
<polygon fill="lightblue" stroke="none" points="169.88,-105 169.88,-126 267.38,-126 267.38,-105 169.88,-105"/>
<polygon fill="none" stroke="black" points="169.88,-105 169.88,-126 267.38,-126 267.38,-105 169.88,-105"/>
<text xml:space="preserve" text-anchor="start" x="202.12" y="-109.7" font-family="Helvetica,sans-Serif" font-size="14.00">email</text>
<polygon fill="lightblue" stroke="none" points="267.38,-105 267.38,-126 370.12,-126 370.12,-105 267.38,-105"/>
<polygon fill="none" stroke="black" points="267.38,-105 267.38,-126 370.12,-126 370.12,-105 267.38,-105"/>
<text xml:space="preserve" text-anchor="start" x="294.75" y="-109.7" font-family="Helvetica,sans-Serif" font-size="14.00">CITEXT</text>
<polygon fill="lightblue" stroke="none" points="169.88,-84 169.88,-105 267.38,-105 267.38,-84 169.88,-84"/>
<polygon fill="none" stroke="black" points="169.88,-84 169.88,-105 267.38,-105 267.38,-84 169.88,-84"/>
<text xml:space="preserve" text-anchor="start" x="172.88" y="-88.7" font-family="Helvetica,sans-Serif" font-size="14.00">phone_number</text>
<polygon fill="lightblue" stroke="none" points="267.38,-84 267.38,-105 370.12,-105 370.12,-84 267.38,-84"/>
<polygon fill="none" stroke="black" points="267.38,-84 267.38,-105 370.12,-105 370.12,-84 267.38,-84"/>
<text xml:space="preserve" text-anchor="start" x="301.5" y="-88.7" font-family="Helvetica,sans-Serif" font-size="14.00">TEXT</text>
<polygon fill="lightblue" stroke="none" points="169.88,-63 169.88,-84 267.38,-84 267.38,-63 169.88,-63"/>
<polygon fill="none" stroke="black" points="169.88,-63 169.88,-84 267.38,-84 267.38,-63 169.88,-63"/>
<text xml:space="preserve" text-anchor="start" x="189" y="-67.7" font-family="Helvetica,sans-Serif" font-size="14.00">address...</text>
<polygon fill="lightblue" stroke="none" points="267.38,-63 267.38,-84 370.12,-84 370.12,-63 267.38,-63"/>
<polygon fill="none" stroke="black" points="267.38,-63 267.38,-84 370.12,-84 370.12,-63 267.38,-63"/>
<text xml:space="preserve" text-anchor="start" x="301.5" y="-67.7" font-family="Helvetica,sans-Serif" font-size="14.00">TEXT</text>
<polygon fill="none" stroke="black" points="169.88,-42 169.88,-63 267.38,-63 267.38,-42 169.88,-42"/>
<text xml:space="preserve" text-anchor="start" x="186.75" y="-46.7" font-family="Helvetica,sans-Serif" font-size="14.00">created_at</text>
<polygon fill="none" stroke="black" points="267.38,-42 267.38,-63 370.12,-63 370.12,-42 267.38,-42"/>
<text xml:space="preserve" text-anchor="start" x="270.38" y="-46.7" font-family="Helvetica,sans-Serif" font-size="14.00">TIMESTAMPTZ</text>
<polygon fill="none" stroke="black" points="169.88,-21 169.88,-42 267.38,-42 267.38,-21 169.88,-21"/>
<text xml:space="preserve" text-anchor="start" x="184.88" y="-25.7" font-family="Helvetica,sans-Serif" font-size="14.00">updated_at</text>
<polygon fill="none" stroke="black" points="267.38,-21 267.38,-42 370.12,-42 370.12,-21 267.38,-21"/>
<text xml:space="preserve" text-anchor="start" x="270.38" y="-25.7" font-family="Helvetica,sans-Serif" font-size="14.00">TIMESTAMPTZ</text>
<polygon fill="none" stroke="black" points="168.88,-20 168.88,-253 371.12,-253 371.12,-20 168.88,-20"/>
</g>
<!-- encounter -->
<g id="node2" class="node">
<title>encounter</title>
<polygon fill="none" stroke="black" points="25.25,-461.5 25.25,-482.5 224.75,-482.5 224.75,-461.5 25.25,-461.5"/>
<text xml:space="preserve" text-anchor="start" x="56.75" y="-467.2" font-family="Helvetica,sans-Serif" font-weight="bold" font-size="14.00">healthcare.encounter</text>
<polygon fill="none" stroke="black" points="25.25,-440.5 25.25,-461.5 122,-461.5 122,-440.5 25.25,-440.5"/>
<text xml:space="preserve" text-anchor="start" x="34.62" y="-445.2" font-family="Helvetica,sans-Serif" font-size="14.00">encounter_id</text>
<polygon fill="none" stroke="black" points="122,-440.5 122,-461.5 224.75,-461.5 224.75,-440.5 122,-440.5"/>
<text xml:space="preserve" text-anchor="start" x="141.5" y="-445.2" font-family="Helvetica,sans-Serif" font-size="14.00">UUID (PK)</text>
<polygon fill="none" stroke="black" points="25.25,-419.5 25.25,-440.5 122,-440.5 122,-419.5 25.25,-419.5"/>
<text xml:space="preserve" text-anchor="start" x="44.38" y="-424.2" font-family="Helvetica,sans-Serif" font-size="14.00">patient_id</text>
<polygon fill="none" stroke="black" points="122,-419.5 122,-440.5 224.75,-440.5 224.75,-419.5 122,-419.5"/>
<text xml:space="preserve" text-anchor="start" x="141.88" y="-424.2" font-family="Helvetica,sans-Serif" font-size="14.00">UUID (FK)</text>
<polygon fill="none" stroke="black" points="25.25,-398.5 25.25,-419.5 122,-419.5 122,-398.5 25.25,-398.5"/>
<text xml:space="preserve" text-anchor="start" x="34.62" y="-403.2" font-family="Helvetica,sans-Serif" font-size="14.00">encounter_ts</text>
<polygon fill="none" stroke="black" points="122,-398.5 122,-419.5 224.75,-419.5 224.75,-398.5 122,-398.5"/>
<text xml:space="preserve" text-anchor="start" x="125" y="-403.2" font-family="Helvetica,sans-Serif" font-size="14.00">TIMESTAMPTZ</text>
<polygon fill="lightgreen" stroke="none" points="25.25,-377.5 25.25,-398.5 122,-398.5 122,-377.5 25.25,-377.5"/>
<polygon fill="none" stroke="black" points="25.25,-377.5 25.25,-398.5 122,-398.5 122,-377.5 25.25,-377.5"/>
<text xml:space="preserve" text-anchor="start" x="45.12" y="-382.2" font-family="Helvetica,sans-Serif" font-size="14.00">diagnosis</text>
<polygon fill="lightgreen" stroke="none" points="122,-377.5 122,-398.5 224.75,-398.5 224.75,-377.5 122,-377.5"/>
<polygon fill="none" stroke="black" points="122,-377.5 122,-398.5 224.75,-398.5 224.75,-377.5 122,-377.5"/>
<text xml:space="preserve" text-anchor="start" x="156.12" y="-382.2" font-family="Helvetica,sans-Serif" font-size="14.00">TEXT</text>
<polygon fill="lightgreen" stroke="none" points="25.25,-356.5 25.25,-377.5 122,-377.5 122,-356.5 25.25,-356.5"/>
<polygon fill="none" stroke="black" points="25.25,-356.5 25.25,-377.5 122,-377.5 122,-356.5 25.25,-356.5"/>
<text xml:space="preserve" text-anchor="start" x="44.75" y="-361.2" font-family="Helvetica,sans-Serif" font-size="14.00">treatment</text>
<polygon fill="lightgreen" stroke="none" points="122,-356.5 122,-377.5 224.75,-377.5 224.75,-356.5 122,-356.5"/>
<polygon fill="none" stroke="black" points="122,-356.5 122,-377.5 224.75,-377.5 224.75,-356.5 122,-356.5"/>
<text xml:space="preserve" text-anchor="start" x="156.12" y="-361.2" font-family="Helvetica,sans-Serif" font-size="14.00">TEXT</text>
<polygon fill="lightgreen" stroke="none" points="25.25,-335.5 25.25,-356.5 122,-356.5 122,-335.5 25.25,-335.5"/>
<polygon fill="none" stroke="black" points="25.25,-335.5 25.25,-356.5 122,-356.5 122,-335.5 25.25,-335.5"/>
<text xml:space="preserve" text-anchor="start" x="57.12" y="-340.2" font-family="Helvetica,sans-Serif" font-size="14.00">notes</text>
<polygon fill="lightgreen" stroke="none" points="122,-335.5 122,-356.5 224.75,-356.5 224.75,-335.5 122,-335.5"/>
<polygon fill="none" stroke="black" points="122,-335.5 122,-356.5 224.75,-356.5 224.75,-335.5 122,-335.5"/>
<text xml:space="preserve" text-anchor="start" x="156.12" y="-340.2" font-family="Helvetica,sans-Serif" font-size="14.00">TEXT</text>
<polygon fill="none" stroke="black" points="25.25,-314.5 25.25,-335.5 122,-335.5 122,-314.5 25.25,-314.5"/>
<text xml:space="preserve" text-anchor="start" x="28.25" y="-319.2" font-family="Helvetica,sans-Serif" font-size="14.00">provider_name</text>
<polygon fill="none" stroke="black" points="122,-314.5 122,-335.5 224.75,-335.5 224.75,-314.5 122,-314.5"/>
<text xml:space="preserve" text-anchor="start" x="156.12" y="-319.2" font-family="Helvetica,sans-Serif" font-size="14.00">TEXT</text>
<polygon fill="none" stroke="black" points="24.25,-313.5 24.25,-483.5 225.75,-483.5 225.75,-313.5 24.25,-313.5"/>
</g>
<!-- encounter&#45;&gt;patient -->
<g id="edge1" class="edge">
<title>encounter&#45;&gt;patient</title>
<path fill="none" stroke="black" d="M197.31,-309.8C197.31,-309.8 197.31,-268.22 197.31,-268.22"/>
<polygon fill="black" stroke="black" points="200.81,-268.22 197.31,-258.22 193.81,-268.22 200.81,-268.22"/>
<text xml:space="preserve" text-anchor="middle" x="194" y="-278.2" font-family="Times,serif" font-size="14.00">patient_id</text>
</g>
<!-- drug -->
<g id="node3" class="node">
<title>drug</title>
<polygon fill="none" stroke="black" points="91,-702.5 91,-723.5 247,-723.5 247,-702.5 91,-702.5"/>
<text xml:space="preserve" text-anchor="start" x="120.25" y="-708.2" font-family="Helvetica,sans-Serif" font-weight="bold" font-size="14.00">pharmacy.drug</text>
<polygon fill="none" stroke="black" points="91,-681.5 91,-702.5 177.25,-702.5 177.25,-681.5 91,-681.5"/>
<text xml:space="preserve" text-anchor="start" x="111.62" y="-686.2" font-family="Helvetica,sans-Serif" font-size="14.00">drug_id</text>
<polygon fill="none" stroke="black" points="177.25,-681.5 177.25,-702.5 247,-702.5 247,-681.5 177.25,-681.5"/>
<text xml:space="preserve" text-anchor="start" x="180.25" y="-686.2" font-family="Helvetica,sans-Serif" font-size="14.00">UUID (PK)</text>
<polygon fill="none" stroke="black" points="91,-660.5 91,-681.5 177.25,-681.5 177.25,-660.5 91,-660.5"/>
<text xml:space="preserve" text-anchor="start" x="116.88" y="-665.2" font-family="Helvetica,sans-Serif" font-size="14.00">name</text>
<polygon fill="none" stroke="black" points="177.25,-660.5 177.25,-681.5 247,-681.5 247,-660.5 177.25,-660.5"/>
<text xml:space="preserve" text-anchor="start" x="194.88" y="-665.2" font-family="Helvetica,sans-Serif" font-size="14.00">TEXT</text>
<polygon fill="none" stroke="black" points="91,-639.5 91,-660.5 177.25,-660.5 177.25,-639.5 91,-639.5"/>
<text xml:space="preserve" text-anchor="start" x="94.38" y="-644.2" font-family="Helvetica,sans-Serif" font-size="14.00">dosage_form</text>
<polygon fill="none" stroke="black" points="177.25,-639.5 177.25,-660.5 247,-660.5 247,-639.5 177.25,-639.5"/>
<text xml:space="preserve" text-anchor="start" x="194.88" y="-644.2" font-family="Helvetica,sans-Serif" font-size="14.00">TEXT</text>
<polygon fill="none" stroke="black" points="91,-618.5 91,-639.5 177.25,-639.5 177.25,-618.5 91,-618.5"/>
<text xml:space="preserve" text-anchor="start" x="109.75" y="-623.2" font-family="Helvetica,sans-Serif" font-size="14.00">strength</text>
<polygon fill="none" stroke="black" points="177.25,-618.5 177.25,-639.5 247,-639.5 247,-618.5 177.25,-618.5"/>
<text xml:space="preserve" text-anchor="start" x="194.88" y="-623.2" font-family="Helvetica,sans-Serif" font-size="14.00">TEXT</text>
<polygon fill="none" stroke="black" points="91,-597.5 91,-618.5 177.25,-618.5 177.25,-597.5 91,-597.5"/>
<text xml:space="preserve" text-anchor="start" x="94" y="-602.2" font-family="Helvetica,sans-Serif" font-size="14.00">manufacturer</text>
<polygon fill="none" stroke="black" points="177.25,-597.5 177.25,-618.5 247,-618.5 247,-597.5 177.25,-597.5"/>
<text xml:space="preserve" text-anchor="start" x="194.88" y="-602.2" font-family="Helvetica,sans-Serif" font-size="14.00">TEXT</text>
<polygon fill="none" stroke="black" points="91,-576.5 91,-597.5 177.25,-597.5 177.25,-576.5 91,-576.5"/>
<text xml:space="preserve" text-anchor="start" x="119.5" y="-581.2" font-family="Helvetica,sans-Serif" font-size="14.00">price</text>
<polygon fill="none" stroke="black" points="177.25,-576.5 177.25,-597.5 247,-597.5 247,-576.5 177.25,-576.5"/>
<text xml:space="preserve" text-anchor="start" x="180.25" y="-581.2" font-family="Helvetica,sans-Serif" font-size="14.00">NUMERIC</text>
<polygon fill="none" stroke="black" points="91,-555.5 91,-576.5 177.25,-576.5 177.25,-555.5 91,-555.5"/>
<text xml:space="preserve" text-anchor="start" x="105.62" y="-560.2" font-family="Helvetica,sans-Serif" font-size="14.00">stock_qty</text>
<polygon fill="none" stroke="black" points="177.25,-555.5 177.25,-576.5 247,-576.5 247,-555.5 177.25,-555.5"/>
<text xml:space="preserve" text-anchor="start" x="201.25" y="-560.2" font-family="Helvetica,sans-Serif" font-size="14.00">INT</text>
<polygon fill="none" stroke="black" points="90,-554.5 90,-724.5 248,-724.5 248,-554.5 90,-554.5"/>
</g>
<!-- order -->
<g id="node4" class="node">
<title>order</title>
<polygon fill="none" stroke="black" points="282.75,-713 282.75,-734 515.25,-734 515.25,-713 282.75,-713"/>
<text xml:space="preserve" text-anchor="start" x="312" y="-718.7" font-family="Helvetica,sans-Serif" font-weight="bold" font-size="14.00">pharmacy.pharmacy_order</text>
<polygon fill="none" stroke="black" points="282.75,-692 282.75,-713 412.5,-713 412.5,-692 282.75,-692"/>
<text xml:space="preserve" text-anchor="start" x="322.88" y="-696.7" font-family="Helvetica,sans-Serif" font-size="14.00">order_id</text>
<polygon fill="none" stroke="black" points="412.5,-692 412.5,-713 515.25,-713 515.25,-692 412.5,-692"/>
<text xml:space="preserve" text-anchor="start" x="432" y="-696.7" font-family="Helvetica,sans-Serif" font-size="14.00">UUID (PK)</text>
<polygon fill="none" stroke="black" points="282.75,-671 282.75,-692 412.5,-692 412.5,-671 282.75,-671"/>
<text xml:space="preserve" text-anchor="start" x="318.38" y="-675.7" font-family="Helvetica,sans-Serif" font-size="14.00">patient_id</text>
<polygon fill="none" stroke="black" points="412.5,-671 412.5,-692 515.25,-692 515.25,-671 412.5,-671"/>
<text xml:space="preserve" text-anchor="start" x="432.38" y="-675.7" font-family="Helvetica,sans-Serif" font-size="14.00">UUID (FK)</text>
<polygon fill="none" stroke="black" points="282.75,-650 282.75,-671 412.5,-671 412.5,-650 282.75,-650"/>
<text xml:space="preserve" text-anchor="start" x="322.88" y="-654.7" font-family="Helvetica,sans-Serif" font-size="14.00">order_ts</text>
<polygon fill="none" stroke="black" points="412.5,-650 412.5,-671 515.25,-671 515.25,-650 412.5,-650"/>
<text xml:space="preserve" text-anchor="start" x="415.5" y="-654.7" font-family="Helvetica,sans-Serif" font-size="14.00">TIMESTAMPTZ</text>
<polygon fill="none" stroke="black" points="282.75,-629 282.75,-650 412.5,-650 412.5,-629 282.75,-629"/>
<text xml:space="preserve" text-anchor="start" x="329.62" y="-633.7" font-family="Helvetica,sans-Serif" font-size="14.00">status</text>
<polygon fill="none" stroke="black" points="412.5,-629 412.5,-650 515.25,-650 515.25,-629 412.5,-629"/>
<text xml:space="preserve" text-anchor="start" x="446.62" y="-633.7" font-family="Helvetica,sans-Serif" font-size="14.00">TEXT</text>
<polygon fill="none" stroke="black" points="282.75,-608 282.75,-629 412.5,-629 412.5,-608 282.75,-608"/>
<text xml:space="preserve" text-anchor="start" x="316.5" y="-612.7" font-family="Helvetica,sans-Serif" font-size="14.00">total_price</text>
<polygon fill="none" stroke="black" points="412.5,-608 412.5,-629 515.25,-629 515.25,-608 412.5,-608"/>
<text xml:space="preserve" text-anchor="start" x="432" y="-612.7" font-family="Helvetica,sans-Serif" font-size="14.00">NUMERIC</text>
<polygon fill="lightblue" stroke="none" points="282.75,-587 282.75,-608 412.5,-608 412.5,-587 282.75,-587"/>
<polygon fill="none" stroke="black" points="282.75,-587 282.75,-608 412.5,-608 412.5,-587 282.75,-587"/>
<text xml:space="preserve" text-anchor="start" x="294.75" y="-591.7" font-family="Helvetica,sans-Serif" font-size="14.00">shipping_address</text>
<polygon fill="lightblue" stroke="none" points="412.5,-587 412.5,-608 515.25,-608 515.25,-587 412.5,-587"/>
<polygon fill="none" stroke="black" points="412.5,-587 412.5,-608 515.25,-608 515.25,-587 412.5,-587"/>
<text xml:space="preserve" text-anchor="start" x="446.62" y="-591.7" font-family="Helvetica,sans-Serif" font-size="14.00">TEXT</text>
<polygon fill="none" stroke="black" points="282.75,-566 282.75,-587 412.5,-587 412.5,-566 282.75,-566"/>
<text xml:space="preserve" text-anchor="start" x="285.75" y="-570.7" font-family="Helvetica,sans-Serif" font-size="14.00">payment_method_id</text>
<polygon fill="none" stroke="black" points="412.5,-566 412.5,-587 515.25,-587 515.25,-566 412.5,-566"/>
<text xml:space="preserve" text-anchor="start" x="432.38" y="-570.7" font-family="Helvetica,sans-Serif" font-size="14.00">UUID (FK)</text>
<polygon fill="none" stroke="black" points="282.75,-545 282.75,-566 412.5,-566 412.5,-545 282.75,-545"/>
<text xml:space="preserve" text-anchor="start" x="315.75" y="-549.7" font-family="Helvetica,sans-Serif" font-size="14.00">fulfilled_by</text>
<polygon fill="none" stroke="black" points="412.5,-545 412.5,-566 515.25,-566 515.25,-545 412.5,-545"/>
<text xml:space="preserve" text-anchor="start" x="447.38" y="-549.7" font-family="Helvetica,sans-Serif" font-size="14.00">UUID</text>
<polygon fill="none" stroke="black" points="281.75,-544 281.75,-735 516.25,-735 516.25,-544 281.75,-544"/>
</g>
<!-- order&#45;&gt;patient -->
<g id="edge2" class="edge">
<title>order&#45;&gt;patient</title>
<path fill="none" stroke="black" d="M307.75,-540.12C307.75,-540.12 307.75,-268.47 307.75,-268.47"/>
<polygon fill="black" stroke="black" points="311.25,-268.47 307.75,-258.47 304.25,-268.47 311.25,-268.47"/>
<text xml:space="preserve" text-anchor="middle" x="297" y="-393.45" font-family="Times,serif" font-size="14.00">patient_id</text>
</g>
<!-- payment_method -->
<g id="node6" class="node">
<title>payment_method</title>
<polygon fill="none" stroke="black" points="350.75,-451 350.75,-472 583.25,-472 583.25,-451 350.75,-451"/>
<text xml:space="preserve" text-anchor="start" x="376.62" y="-456.7" font-family="Helvetica,sans-Serif" font-weight="bold" font-size="14.00">payments.payment_method</text>
<polygon fill="none" stroke="black" points="350.75,-430 350.75,-451 480.5,-451 480.5,-430 350.75,-430"/>
<text xml:space="preserve" text-anchor="start" x="353.75" y="-434.7" font-family="Helvetica,sans-Serif" font-size="14.00">payment_method_id</text>
<polygon fill="none" stroke="black" points="480.5,-430 480.5,-451 583.25,-451 583.25,-430 480.5,-430"/>
<text xml:space="preserve" text-anchor="start" x="500" y="-434.7" font-family="Helvetica,sans-Serif" font-size="14.00">UUID (PK)</text>
<polygon fill="none" stroke="black" points="350.75,-409 350.75,-430 480.5,-430 480.5,-409 350.75,-409"/>
<text xml:space="preserve" text-anchor="start" x="386.38" y="-413.7" font-family="Helvetica,sans-Serif" font-size="14.00">patient_id</text>
<polygon fill="none" stroke="black" points="480.5,-409 480.5,-430 583.25,-430 583.25,-409 480.5,-409"/>
<text xml:space="preserve" text-anchor="start" x="500.38" y="-413.7" font-family="Helvetica,sans-Serif" font-size="14.00">UUID (FK)</text>
<polygon fill="orange" stroke="none" points="350.75,-388 350.75,-409 480.5,-409 480.5,-388 350.75,-388"/>
<polygon fill="none" stroke="black" points="350.75,-388 350.75,-409 480.5,-409 480.5,-388 350.75,-388"/>
<text xml:space="preserve" text-anchor="start" x="375.12" y="-392.7" font-family="Helvetica,sans-Serif" font-size="14.00">card_network</text>
<polygon fill="orange" stroke="none" points="480.5,-388 480.5,-409 583.25,-409 583.25,-388 480.5,-388"/>
<polygon fill="none" stroke="black" points="480.5,-388 480.5,-409 583.25,-409 583.25,-388 480.5,-388"/>
<text xml:space="preserve" text-anchor="start" x="514.62" y="-392.7" font-family="Helvetica,sans-Serif" font-size="14.00">TEXT</text>
<polygon fill="orange" stroke="none" points="350.75,-367 350.75,-388 480.5,-388 480.5,-367 350.75,-367"/>
<polygon fill="none" stroke="black" points="350.75,-367 350.75,-388 480.5,-388 480.5,-367 350.75,-367"/>
<text xml:space="preserve" text-anchor="start" x="384.5" y="-371.7" font-family="Helvetica,sans-Serif" font-size="14.00">card_last4</text>
<polygon fill="orange" stroke="none" points="480.5,-367 480.5,-388 583.25,-388 583.25,-367 480.5,-367"/>
<polygon fill="none" stroke="black" points="480.5,-367 480.5,-388 583.25,-388 583.25,-367 480.5,-367"/>
<text xml:space="preserve" text-anchor="start" x="504.5" y="-371.7" font-family="Helvetica,sans-Serif" font-size="14.00">CHAR(4)</text>
<polygon fill="orange" stroke="none" points="350.75,-346 350.75,-367 480.5,-367 480.5,-346 350.75,-346"/>
<polygon fill="none" stroke="black" points="350.75,-346 350.75,-367 480.5,-367 480.5,-346 350.75,-346"/>
<text xml:space="preserve" text-anchor="start" x="369.12" y="-350.7" font-family="Helvetica,sans-Serif" font-size="14.00">payment_token</text>
<polygon fill="orange" stroke="none" points="480.5,-346 480.5,-367 583.25,-367 583.25,-346 480.5,-346"/>
<polygon fill="none" stroke="black" points="480.5,-346 480.5,-367 583.25,-367 583.25,-346 480.5,-346"/>
<text xml:space="preserve" text-anchor="start" x="514.62" y="-350.7" font-family="Helvetica,sans-Serif" font-size="14.00">TEXT</text>
<polygon fill="none" stroke="black" points="350.75,-325 350.75,-346 480.5,-346 480.5,-325 350.75,-325"/>
<text xml:space="preserve" text-anchor="start" x="383.75" y="-329.7" font-family="Helvetica,sans-Serif" font-size="14.00">created_at</text>
<polygon fill="none" stroke="black" points="480.5,-325 480.5,-346 583.25,-346 583.25,-325 480.5,-325"/>
<text xml:space="preserve" text-anchor="start" x="483.5" y="-329.7" font-family="Helvetica,sans-Serif" font-size="14.00">TIMESTAMPTZ</text>
<polygon fill="none" stroke="black" points="349.75,-324 349.75,-473 584.25,-473 584.25,-324 349.75,-324"/>
</g>
<!-- order&#45;&gt;payment_method -->
<g id="edge3" class="edge">
<title>order&#45;&gt;payment_method</title>
<path fill="none" stroke="black" d="M433,-540.08C433,-540.08 433,-488.23 433,-488.23"/>
<polygon fill="black" stroke="black" points="436.5,-488.23 433,-478.23 429.5,-488.23 436.5,-488.23"/>
<text xml:space="preserve" text-anchor="middle" x="489.25" y="-508.7" font-family="Times,serif" font-size="14.00">payment_method_id</text>
</g>
<!-- order_item -->
<g id="node5" class="node">
<title>order_item</title>
<polygon fill="none" stroke="black" points="176,-880.5 176,-901.5 392,-901.5 392,-880.5 176,-880.5"/>
<text xml:space="preserve" text-anchor="start" x="179" y="-886.2" font-family="Helvetica,sans-Serif" font-weight="bold" font-size="14.00">pharmacy.pharmacy_order_item</text>
<polygon fill="none" stroke="black" points="176,-859.5 176,-880.5 281.38,-880.5 281.38,-859.5 176,-859.5"/>
<text xml:space="preserve" text-anchor="start" x="203.94" y="-864.2" font-family="Helvetica,sans-Serif" font-size="14.00">order_id</text>
<polygon fill="none" stroke="black" points="281.38,-859.5 281.38,-880.5 392,-880.5 392,-859.5 281.38,-859.5"/>
<text xml:space="preserve" text-anchor="start" x="305.19" y="-864.2" font-family="Helvetica,sans-Serif" font-size="14.00">UUID (FK)</text>
<polygon fill="none" stroke="black" points="176,-838.5 176,-859.5 281.38,-859.5 281.38,-838.5 176,-838.5"/>
<text xml:space="preserve" text-anchor="start" x="206.19" y="-843.2" font-family="Helvetica,sans-Serif" font-size="14.00">drug_id</text>
<polygon fill="none" stroke="black" points="281.38,-838.5 281.38,-859.5 392,-859.5 392,-838.5 281.38,-838.5"/>
<text xml:space="preserve" text-anchor="start" x="305.19" y="-843.2" font-family="Helvetica,sans-Serif" font-size="14.00">UUID (FK)</text>
<polygon fill="none" stroke="black" points="176,-817.5 176,-838.5 281.38,-838.5 281.38,-817.5 176,-817.5"/>
<text xml:space="preserve" text-anchor="start" x="205.06" y="-822.2" font-family="Helvetica,sans-Serif" font-size="14.00">quantity</text>
<polygon fill="none" stroke="black" points="281.38,-817.5 281.38,-838.5 392,-838.5 392,-817.5 281.38,-817.5"/>
<text xml:space="preserve" text-anchor="start" x="325.81" y="-822.2" font-family="Helvetica,sans-Serif" font-size="14.00">INT</text>
<polygon fill="none" stroke="black" points="176,-796.5 176,-817.5 281.38,-817.5 281.38,-796.5 176,-796.5"/>
<text xml:space="preserve" text-anchor="start" x="199.44" y="-801.2" font-family="Helvetica,sans-Serif" font-size="14.00">unit_price</text>
<polygon fill="none" stroke="black" points="281.38,-796.5 281.38,-817.5 392,-817.5 392,-796.5 281.38,-796.5"/>
<text xml:space="preserve" text-anchor="start" x="304.81" y="-801.2" font-family="Helvetica,sans-Serif" font-size="14.00">NUMERIC</text>
<polygon fill="none" stroke="black" points="175,-795.5 175,-902.5 393,-902.5 393,-795.5 175,-795.5"/>
</g>
<!-- order_item&#45;&gt;drug -->
<g id="edge5" class="edge">
<title>order_item&#45;&gt;drug</title>
<path fill="none" stroke="black" d="M211.5,-791.75C211.5,-791.75 211.5,-739.67 211.5,-739.67"/>
<polygon fill="black" stroke="black" points="215,-739.67 211.5,-729.67 208,-739.67 215,-739.67"/>
<text xml:space="preserve" text-anchor="middle" x="231" y="-760.2" font-family="Times,serif" font-size="14.00">drug_id</text>
</g>
<!-- order_item&#45;&gt;order -->
<g id="edge4" class="edge">
<title>order_item&#45;&gt;order</title>
<path fill="none" stroke="black" d="M337.38,-791.75C337.38,-791.75 337.38,-750.49 337.38,-750.49"/>
<polygon fill="black" stroke="black" points="340.88,-750.49 337.38,-740.49 333.88,-750.49 340.88,-750.49"/>
<text xml:space="preserve" text-anchor="middle" x="379.88" y="-760.2" font-family="Times,serif" font-size="14.00">order_id</text>
</g>
<!-- payment_method&#45;&gt;patient -->
<g id="edge6" class="edge">
<title>payment_method&#45;&gt;patient</title>
<path fill="none" stroke="black" d="M360.44,-320.25C360.44,-320.25 360.44,-268.04 360.44,-268.04"/>
<polygon fill="black" stroke="black" points="363.94,-268.04 360.44,-258.04 356.94,-268.04 363.94,-268.04"/>
<text xml:space="preserve" text-anchor="middle" x="407" y="-278.2" font-family="Times,serif" font-size="14.00">patient_id</text>
</g>
<!-- legend -->
<g id="node7" class="node">
<title>legend</title>
<polygon fill="none" stroke="black" points="617,-660.5 617,-681.5 887,-681.5 887,-660.5 617,-660.5"/>
<text xml:space="preserve" text-anchor="start" x="728" y="-666.2" font-family="Helvetica,sans-Serif" font-weight="bold" font-size="14.00">Legend</text>
<polygon fill="lightblue" stroke="none" points="617,-639.5 617,-660.5 677,-660.5 677,-639.5 617,-639.5"/>
<polygon fill="none" stroke="black" points="617,-639.5 617,-660.5 677,-660.5 677,-639.5 617,-639.5"/>
<text xml:space="preserve" text-anchor="start" x="638.75" y="-644.2" font-family="Helvetica,sans-Serif" font-size="14.00">PII</text>
<polygon fill="none" stroke="black" points="677,-639.5 677,-660.5 887,-660.5 887,-639.5 677,-639.5"/>
<text xml:space="preserve" text-anchor="start" x="680" y="-644.2" font-family="Helvetica,sans-Serif" font-size="14.00">Personally Identifiable Information</text>
<polygon fill="lightgreen" stroke="none" points="617,-618.5 617,-639.5 677,-639.5 677,-618.5 617,-618.5"/>
<polygon fill="none" stroke="black" points="617,-618.5 617,-639.5 677,-639.5 677,-618.5 617,-618.5"/>
<text xml:space="preserve" text-anchor="start" x="635.75" y="-623.2" font-family="Helvetica,sans-Serif" font-size="14.00">PHI</text>
<polygon fill="none" stroke="black" points="677,-618.5 677,-639.5 887,-639.5 887,-618.5 677,-618.5"/>
<text xml:space="preserve" text-anchor="start" x="695.75" y="-623.2" font-family="Helvetica,sans-Serif" font-size="14.00">Protected Health Information</text>
<polygon fill="orange" stroke="none" points="617,-597.5 617,-618.5 677,-618.5 677,-597.5 617,-597.5"/>
<polygon fill="none" stroke="black" points="617,-597.5 617,-618.5 677,-618.5 677,-597.5 617,-597.5"/>
<text xml:space="preserve" text-anchor="start" x="620" y="-602.2" font-family="Helvetica,sans-Serif" font-size="14.00">Financial</text>
<polygon fill="none" stroke="black" points="677,-597.5 677,-618.5 887,-618.5 887,-597.5 677,-597.5"/>
<text xml:space="preserve" text-anchor="start" x="706.25" y="-602.2" font-family="Helvetica,sans-Serif" font-size="14.00">Payment / Financial Data</text>
<polygon fill="none" stroke="black" points="616,-596.5 616,-682.5 888,-682.5 888,-596.5 616,-596.5"/>
</g>
<!-- schema_anchor -->
<!-- schema_anchor&#45;&gt;legend -->
</g>
</svg>
